<svg width="1233" height="278" viewBox="0 0 1233 278" fill="none" xmlns="http://www.w3.org/2000/svg">
<path d="M57.5806 242.471L90.2615 253.691H0L32.6809 242.471V15.5829L0 4.36323H74.0766C112.982 4.36323 137.26 23.6861 137.26 53.2937C137.26 96.926 90.2615 119.365 57.5806 121.547V242.471ZM57.5806 7.47982V118.43C77.1891 116.872 110.492 105.964 110.492 61.3968C110.492 31.1659 91.8177 7.47982 57.5806 7.47982Z" fill="white"/>
<path d="M206.969 250.574C237.471 250.574 258.325 233.121 271.708 186.061L276.688 168.608H278.556L257.08 253.691H130.091L162.772 242.471V15.5829L130.091 4.36323H256.769L270.463 82.5897H268.596L265.172 64.8251C257.391 24.3094 238.405 7.47982 203.545 7.47982H187.672V103.159H254.279V103.782L187.672 118.742V250.574H206.969Z" fill="white"/>
<path d="M448.044 4.36323L415.363 15.2713L411.939 258.989L301.758 19.9462L305.493 242.471L338.485 253.691H262.541L295.533 242.471L298.957 15.8946L264.409 4.36323H323.545L410.072 197.28L406.337 15.5829L373.656 4.36323H448.044Z" fill="white"/>
<path d="M573.488 4.36323L587.183 82.5897H585.316L581.581 62.6435C573.8 20.8812 549.834 7.47982 527.735 7.47982H522.755V242.471L556.059 253.691H464.552L497.856 242.471V7.47982H494.121C473.267 7.47982 448.056 20.5695 440.275 62.6435L436.54 82.5897H434.673L448.367 4.36323H573.488Z" fill="white"/>
<path d="M609.581 15.5829L576.9 4.36323H667.161L634.481 15.5829V113.756H707.623V15.5829L674.943 4.36323H765.204L732.523 15.5829V242.471L765.204 253.691H674.943L707.623 242.471V116.872H634.481V242.471L667.161 253.691H576.9L609.581 242.471V15.5829Z" fill="white"/>
<path d="M830.982 250.574C861.484 250.574 882.337 233.121 895.721 186.061L900.701 168.608H902.568L881.092 253.691H754.104L786.785 242.471V15.5829L754.104 4.36323H880.781L894.476 82.5897H892.608L889.185 64.8251C881.404 24.3094 862.418 7.47982 827.558 7.47982H811.684V103.159H878.291V103.782L811.684 118.742V250.574H830.982Z" fill="white"/>
<path d="M947.247 242.471L979.928 253.691H889.666L922.347 242.471V15.5829L889.666 4.36323H963.743C1002.65 4.36323 1026.93 22.7511 1026.93 48.6188C1026.93 76.6682 1003.27 94.4327 978.371 102.848L1042.49 278H1041.55L947.247 108.769V242.471ZM947.247 7.47982V105.964C977.438 105.029 1000.16 85.083 1000.16 55.1637C1000.16 28.361 981.484 7.47982 947.247 7.47982Z" fill="white"/>
<path d="M1142.74 253.691L1175.42 242.782L1145.54 139H1094.18L1068.66 242.782L1101.65 253.691H1027.58L1058.39 242.159L1127.8 0L1200.32 242.471L1233 253.691H1142.74ZM1095.12 135.883H1144.61L1117.53 43.6323L1095.12 135.883Z" fill="white"/>
</svg>
